<?xml version="1.0" encoding="UTF-8" standalone="no"?>
<!-- Created with Inkscape (http://www.inkscape.org/) -->

<svg
   width="286mm"
   height="62mm"
   viewBox="0 0 286 62"
   version="1.1"
   id="svg5"
   inkscape:version="1.4.2 (f4327f4, 2025-05-13)"
   sodipodi:docname="letters-with-text.svg"
   inkscape:export-filename="C:\Users\FamZauner\Pictures\CompactWritingSystem\letters.png"
   inkscape:export-xdpi="228.60001"
   inkscape:export-ydpi="228.60001"
   xmlns:inkscape="http://www.inkscape.org/namespaces/inkscape"
   xmlns:sodipodi="http://sodipodi.sourceforge.net/DTD/sodipodi-0.dtd"
   xmlns="http://www.w3.org/2000/svg"
   xmlns:svg="http://www.w3.org/2000/svg">
  <sodipodi:namedview
     id="namedview7"
     pagecolor="#000000"
     bordercolor="#666666"
     borderopacity="1.0"
     inkscape:pageshadow="2"
     inkscape:pageopacity="0"
     inkscape:pagecheckerboard="true"
     inkscape:document-units="mm"
     showgrid="false"
     inkscape:zoom="2.0000001"
     inkscape:cx="177.75"
     inkscape:cy="81.249998"
     inkscape:window-width="1920"
     inkscape:window-height="1009"
     inkscape:window-x="-8"
     inkscape:window-y="-8"
     inkscape:window-maximized="1"
     inkscape:current-layer="layer1"
     inkscape:showpageshadow="2"
     inkscape:deskcolor="#000000" />
  <defs
     id="defs2" />
  <g
     inkscape:label="Layer 1"
     inkscape:groupmode="layer"
     id="layer1">
    <path
       id="path31"
       style="fill:#ffffff;fill-rule:evenodd;stroke-width:0"
       d="m 0.52916673,49.808 a 5,5 0 0 1 4.99999997,-5 5,5 0 0 1 4.9999993,5 5,5 0 0 1 -4.9999993,5 5,5 0 0 1 -4.99999997,-5 z" />
    <path
       id="path31-7"
       style="fill:#ffffff;fill-rule:evenodd;stroke-width:0"
       d="m 11.529167,6.0583334 a 5,5 0 0 1 5,-5 5,5 0 0 1 5,5 5,5 0 0 1 -5,4.9999996 5,5 0 0 1 -5,-4.9999996 z" />
    <path
       id="path31-7-5-9"
       style="fill:#ffffff;fill-rule:evenodd;stroke-width:0"
       d="m 55.529167,6.0583334 a 5,5 0 0 1 5,-5 5,5 0 0 1 5,5 5,5 0 0 1 -5,4.9999996 5,5 0 0 1 -5,-4.9999996 z" />
    <path
       id="path31-7-5-9-7"
       style="fill:#ffffff;fill-rule:evenodd;stroke-width:0"
       d="m 99.529163,6.0583334 a 5,5 0 0 1 4.999997,-5 5,5 0 0 1 5,5 5,5 0 0 1 -5,4.9999996 5,5 0 0 1 -4.999997,-4.9999996 z" />
    <path
       id="path31-7-5-9-7-1"
       style="fill:#ffffff;fill-rule:evenodd;stroke-width:0"
       d="m 99.529163,43.558334 a 5,5 0 0 1 4.999997,-5 5,5 0 0 1 5,5 5,5 0 0 1 -5,5 5,5 0 0 1 -4.999997,-5 z" />
    <path
       id="path31-7-5-9-7-1-9"
       style="fill:#ffffff;fill-rule:evenodd;stroke-width:0"
       d="m 99.529163,56.058334 a 5,5 0 0 1 4.999997,-5 5,5 0 0 1 5,5 5,5 0 0 1 -5,5 5,5 0 0 1 -4.999997,-5 z" />
    <path
       id="path31-7-5-9-7-1-9-1"
       style="fill:#ffffff;fill-rule:evenodd;stroke-width:0"
       d="m 110.52916,31.058334 a 5,5 0 0 0 5,5 5,5 0 0 0 5,-5 5,5 0 0 0 -5,-5 5,5 0 0 0 -5,5 z" />
    <path
       id="path31-7-3-7-9"
       style="fill:#ffffff;fill-rule:evenodd;stroke-width:0"
       d="m 44.529167,31.058334 a 5,5 0 0 1 5,-5 5,5 0 0 1 5,5 5,5 0 0 1 -5,5 5,5 0 0 1 -5,-5 z" />
    <path
       id="path31-7-9"
       style="fill:#ffffff;fill-rule:evenodd;stroke-width:0"
       d="m 11.529167,46.058334 a 5,5 0 0 1 5,-5 5,5 0 0 1 5,5 5,5 0 0 1 -5,5 5,5 0 0 1 -5,-5 z" />
    <path
       id="path31-7-9-5"
       style="fill:#ffffff;fill-rule:evenodd;stroke-width:0"
       d="m 11.529167,56.058334 a 5,5 0 0 1 5,-5 5,5 0 0 1 5,5 5,5 0 0 1 -5,5 5,5 0 0 1 -5,-5 z" />
    <path
       id="rect1038"
       style="fill:#ffffff;stroke-width:0"
       d="m 11.529165,46.058334 h 10 v 10 h -10 z" />
    <path
       id="path31-7-9-7-4-67"
       style="fill:#ffffff;fill-rule:evenodd;stroke-width:0"
       d="m 209.52915,6.0583334 a 5,5 0 0 1 5,-5 5,5 0 0 1 5,5 5,5 0 0 1 -5,4.9999996 5,5 0 0 1 -5,-4.9999996 z" />
    <path
       id="path31-7-9-5-4-9-6"
       style="fill:#ffffff;fill-rule:evenodd;stroke-width:0"
       d="m 209.52915,21.058334 a 5,5 0 0 1 5,-5 5,5 0 0 1 5,5 5,5 0 0 1 -5,5 5,5 0 0 1 -5,-5 z" />
    <path
       id="rect1038-1-6-2"
       style="fill:#ffffff;stroke-width:0"
       d="m 209.52915,6.0583334 h 10 V 21.058333 h -10 z" />
    <path
       id="path31-7-9-7-4-67-5"
       style="fill:#ffffff;fill-rule:evenodd;stroke-width:0"
       d="m 264.52918,6.0583334 a 5,5 0 0 1 5,-5 5,5 0 0 1 5,5 5,5 0 0 1 -5,4.9999996 5,5 0 0 1 -5,-4.9999996 z" />
    <path
       id="path31-7-9-5-4-9-6-6"
       style="fill:#ffffff;fill-rule:evenodd;stroke-width:0"
       d="m 264.52918,23.558334 a 5,5 0 0 1 5,-5 5,5 0 0 1 5,5 5,5 0 0 1 -5,5 5,5 0 0 1 -5,-5 z" />
    <path
       id="rect1038-1-6-2-1"
       style="fill:#ffffff;stroke-width:0"
       d="m 264.52918,6.0583334 h 10 V 23.558333 h -10 z" />
    <path
       id="path31-7-9-7-4-6"
       style="fill:#ffffff;fill-rule:evenodd;stroke-width:0"
       d="m 154.52915,41.058334 a 5,5 0 0 1 5,-5 5,5 0 0 1 5,5 5,5 0 0 1 -5,5 5,5 0 0 1 -5,-5 z" />
    <path
       id="path31-7-9-5-4-9-0"
       style="fill:#ffffff;fill-rule:evenodd;stroke-width:0"
       d="m 154.52915,56.058334 a 5,5 0 0 1 5,-5 5,5 0 0 1 5,5 5,5 0 0 1 -5,5 5,5 0 0 1 -5,-5 z" />
    <path
       id="rect1038-1-6-0"
       style="fill:#ffffff;stroke-width:0"
       d="m 154.52915,41.058334 h 10 v 15 h -10 z" />
    <path
       id="path31-7-9-7-4-8-3"
       style="fill:#ffffff;fill-rule:evenodd;stroke-width:0"
       d="m 198.52915,23.558334 a 5,5 0 0 1 5,-5 5,5 0 0 1 5,5 5,5 0 0 1 -5,5 5,5 0 0 1 -5,-5 z" />
    <path
       id="path31-7-9-5-4-9-9-6"
       style="fill:#ffffff;fill-rule:evenodd;stroke-width:0"
       d="m 198.52915,38.558334 a 5,5 0 0 1 5,-5 5,5 0 0 1 5,5 5,5 0 0 1 -5,5 5,5 0 0 1 -5,-5 z" />
    <path
       id="path31-7-9-7-6"
       style="fill:#ffffff;fill-rule:evenodd;stroke-width:0"
       d="m 55.529167,18.558334 a 5,5 0 0 1 5,-5 5,5 0 0 1 5,5 5,5 0 0 1 -5,5 5,5 0 0 1 -5,-5 z" />
    <path
       id="path31-7-9-5-4-6"
       style="fill:#ffffff;fill-rule:evenodd;stroke-width:0"
       d="m 55.529167,56.058334 a 5,5 0 0 1 5,-5 5,5 0 0 1 5,5 5,5 0 0 1 -5,5 5,5 0 0 1 -5,-5 z" />
    <path
       id="rect1038-1-9"
       style="fill:#ffffff;stroke-width:0"
       d="m 55.529167,18.558334 h 10 v 37.5 h -10 z" />
    <path
       id="path31-7-5-9-1"
       style="fill:#ffffff;fill-rule:evenodd;stroke-width:0"
       d="m 66.529167,56.058334 a 5,5 0 0 0 5,5 5,5 0 0 0 5,-5 5,5 0 0 0 -5,-5 5,5 0 0 0 -5,5 z" />
    <path
       id="path31-7-9-7-6-1"
       style="fill:#ffffff;fill-rule:evenodd;stroke-width:0"
       d="m 66.529167,43.558334 a 5,5 0 0 0 5,5 5,5 0 0 0 5,-5 5,5 0 0 0 -5,-5 5,5 0 0 0 -5,5 z" />
    <path
       id="path31-7-9-5-4-6-2"
       style="fill:#ffffff;fill-rule:evenodd;stroke-width:0"
       d="m 66.529167,6.0583334 a 5,5 0 0 0 5,4.9999996 5,5 0 0 0 5,-4.9999996 5,5 0 0 0 -5,-5 5,5 0 0 0 -5,5 z" />
    <path
       id="rect1038-1-9-7"
       style="fill:#ffffff;stroke-width:0"
       d="m 66.529167,43.558334 h 10 V 6.0583344 h -10 z" />
    <path
       id="path31-7-5-9-1-7"
       style="fill:#ffffff;fill-rule:evenodd;stroke-width:0"
       d="m 110.52916,6.0583334 a 5,5 0 0 1 5,-5 5,5 0 0 1 5,5 5,5 0 0 1 -5,4.9999996 5,5 0 0 1 -5,-4.9999996 z" />
    <path
       id="path31-7-9-7-6-1-5"
       style="fill:#ffffff;fill-rule:evenodd;stroke-width:0"
       d="m 110.52916,18.558334 a 5,5 0 0 1 5,-5 5,5 0 0 1 5,5 5,5 0 0 1 -5,5 5,5 0 0 1 -5,-5 z" />
    <path
       id="path31-7-9-5-4-6-2-1"
       style="fill:#ffffff;fill-rule:evenodd;stroke-width:0"
       d="m 110.52916,56.058334 a 5,5 0 0 1 5,-5 5,5 0 0 1 5,5 5,5 0 0 1 -5,5 5,5 0 0 1 -5,-5 z" />
    <path
       id="rect1038-1-9-7-1"
       style="fill:#ffffff;stroke-width:0"
       d="m 110.52916,31.058334 h 10 v 25 h -10 z" />
    <path
       id="path31-7-5-9-7-1-9-1-7"
       style="fill:#ffffff;fill-rule:evenodd;stroke-width:0"
       d="m 231.52915,31.058334 a 5,5 0 0 1 5,-5 5,5 0 0 1 5,5 5,5 0 0 1 -5,5 5,5 0 0 1 -5,-5 z" />
    <path
       id="path31-7-5-9-1-7-4"
       style="fill:#ffffff;fill-rule:evenodd;stroke-width:0"
       d="m 231.52915,56.058331 a 5,5 0 0 0 5,5 5,5 0 0 0 5,-5 5,5 0 0 0 -5,-5 5,5 0 0 0 -5,5 z" />
    <path
       id="path31-7-9-7-6-1-5-4"
       style="fill:#ffffff;fill-rule:evenodd;stroke-width:0"
       d="m 231.52915,43.558331 a 5,5 0 0 0 5,5 5,5 0 0 0 5,-5 5,5 0 0 0 -5,-5 5,5 0 0 0 -5,5 z" />
    <path
       id="path31-7-9-5-4-6-2-1-2"
       style="fill:#ffffff;fill-rule:evenodd;stroke-width:0"
       d="m 231.52915,6.0583334 a 5,5 0 0 0 5,4.9999996 5,5 0 0 0 5,-4.9999996 5,5 0 0 0 -5,-5 5,5 0 0 0 -5,5 z" />
    <path
       id="rect1038-1-9-7-1-2"
       style="fill:#ffffff;stroke-width:0"
       d="m 231.52915,31.058334 h 10 V 6.0583344 h -10 z" />
    <path
       id="path31-7-5-9-7-9"
       style="fill:#ffffff;fill-rule:evenodd;stroke-width:0"
       d="m 176.52915,6.0583334 a 5,5 0 0 1 5,-5 5,5 0 0 1 5,5 5,5 0 0 1 -5,4.9999996 5,5 0 0 1 -5,-4.9999996 z" />
    <path
       id="path31-7-5-9-7-1-8"
       style="fill:#ffffff;fill-rule:evenodd;stroke-width:0"
       d="m 176.52915,18.558334 a 5,5 0 0 1 5,-5 5,5 0 0 1 5,5 5,5 0 0 1 -5,5 5,5 0 0 1 -5,-5 z" />
    <path
       id="path31-7-5-9-7-1-9-6"
       style="fill:#ffffff;fill-rule:evenodd;stroke-width:0"
       d="m 176.52915,56.058334 a 5,5 0 0 1 5,-5 5,5 0 0 1 5,5 5,5 0 0 1 -5,5 5,5 0 0 1 -5,-5 z" />
    <path
       id="path31-7-5-9-7-1-9-1-5"
       style="fill:#ffffff;fill-rule:evenodd;stroke-width:0"
       d="m 242.52915,43.558334 a 5,5 0 0 1 5,-5 5,5 0 0 1 5,5 5,5 0 0 1 -5,5 5,5 0 0 1 -5,-5 z" />
    <path
       id="path31-7-5-9-1-7-7"
       style="fill:#ffffff;fill-rule:evenodd;stroke-width:0"
       d="m 242.52915,56.058334 a 5,5 0 0 0 5,5 5,5 0 0 0 5,-5 5,5 0 0 0 -5,-5 5,5 0 0 0 -5,5 z" />
    <path
       id="path31-7-9-7-6-1-5-6"
       style="fill:#ffffff;fill-rule:evenodd;stroke-width:0"
       d="m 242.52915,6.0583334 a 5,5 0 0 0 5,4.9999996 5,5 0 0 0 5,-4.9999996 5,5 0 0 0 -5,-5 5,5 0 0 0 -5,5 z" />
    <path
       id="path31-7-5-9-1-7-7-0"
       style="fill:#ffffff;fill-rule:evenodd;stroke-width:0"
       d="m 253.52918,56.058334 a 5,5 0 0 0 5,5 5,5 0 0 0 5,-5 5,5 0 0 0 -5,-5 5,5 0 0 0 -5,5 z" />
    <path
       id="path31-7-9-7-6-1-5-6-1"
       style="fill:#ffffff;fill-rule:evenodd;stroke-width:0"
       d="m 253.52918,6.0583334 a 5,5 0 0 0 5,4.9999996 5,5 0 0 0 5,-4.9999996 5,5 0 0 0 -5,-5 5,5 0 0 0 -5,5 z" />
    <path
       id="path31-7-9-7-6-1-5-6-1-8"
       style="fill:#ffffff;fill-rule:evenodd;stroke-width:0"
       d="m 253.52918,31.058334 a 5,5 0 0 0 5,5 5,5 0 0 0 5,-5 5,5 0 0 0 -5,-5 5,5 0 0 0 -5,5 z" />
    <path
       id="path31-7-9-5-4-6-2-1-8"
       style="fill:#ffffff;fill-rule:evenodd;stroke-width:0"
       d="m 242.52915,18.558334 a 5,5 0 0 0 5,5 5,5 0 0 0 5,-5 5,5 0 0 0 -5,-5 5,5 0 0 0 -5,5 z" />
    <path
       id="rect1038-1-9-7-1-0"
       style="fill:#ffffff;stroke-width:0"
       d="m 242.52915,43.558334 h 10 v -25 h -10 z" />
    <path
       id="path31-7-9-7-4-67-5-4"
       style="fill:#ffffff;fill-rule:evenodd;stroke-width:0"
       d="m 264.52918,38.558334 a 5,5 0 0 1 5,-5 5,5 0 0 1 5,5 5,5 0 0 1 -5,5 5,5 0 0 1 -5,-5 z" />
    <path
       id="path31-7-9-5-4-9-6-6-1"
       style="fill:#ffffff;fill-rule:evenodd;stroke-width:0"
       d="m 264.52918,56.058334 a 5,5 0 0 1 5,-5 5,5 0 0 1 5,5 5,5 0 0 1 -5,5 5,5 0 0 1 -5,-5 z" />
    <path
       id="rect1038-1-6-2-1-5"
       style="fill:#ffffff;stroke-width:0"
       d="m 264.52918,38.558334 h 10 v 17.5 h -10 z" />
    <path
       id="path31-7-5-9-7-9-6"
       style="fill:#ffffff;fill-rule:evenodd;stroke-width:0"
       d="m 275.52918,18.558334 a 5,5 0 0 1 5,-5 5,5 0 0 1 5,5 5,5 0 0 1 -5,5 5,5 0 0 1 -5,-5 z" />
    <path
       id="path31-7-5-9-7-1-8-1"
       style="fill:#ffffff;fill-rule:evenodd;stroke-width:0"
       d="m 275.52918,31.058338 a 5,5 0 0 1 5,-5 5,5 0 0 1 5,5 5,5 0 0 1 -5,5 5,5 0 0 1 -5,-5 z" />
    <path
       id="path31-7-5-9-7-1-9-6-7"
       style="fill:#ffffff;fill-rule:evenodd;stroke-width:0"
       d="m 275.52918,43.558338 a 5,5 0 0 1 5,-5 5,5 0 0 1 5,5 5,5 0 0 1 -5,5 5,5 0 0 1 -5,-5 z" />
    <path
       id="path31-7-9-7-4-8-3-9"
       style="fill:#ffffff;fill-rule:evenodd;stroke-width:0"
       d="m 143.52915,6.0583334 a 5,5 0 0 1 5,-5 5,5 0 0 1 5,5 5,5 0 0 1 -5,4.9999996 5,5 0 0 1 -5,-4.9999996 z" />
    <path
       id="path31-7-9-5-4-9-9-6-5"
       style="fill:#ffffff;fill-rule:evenodd;stroke-width:0"
       d="m 143.52915,21.058334 a 5,5 0 0 1 5,-5 5,5 0 0 1 5,5 5,5 0 0 1 -5,5 5,5 0 0 1 -5,-5 z" />
    <path
       id="path31-7-3-7-8"
       style="fill:#ffffff;fill-rule:evenodd;stroke-width:0"
       d="m 33.529167,6.0583334 a 5,5 0 0 0 5,4.9999996 5,5 0 0 0 5,-4.9999996 5,5 0 0 0 -5,-5 5,5 0 0 0 -5,5 z" />
    <path
       id="path31-7-9-7-31"
       style="fill:#ffffff;fill-rule:evenodd;stroke-width:0"
       d="m 33.529167,28.558327 a 5,5 0 0 0 5,5 5,5 0 0 0 5,-5 5,5 0 0 0 -5,-5 5,5 0 0 0 -5,5 z" />
    <path
       id="path31-7-9-5-4-8"
       style="fill:#ffffff;fill-rule:evenodd;stroke-width:0"
       d="m 33.529167,18.558334 a 5,5 0 0 0 5,5 5,5 0 0 0 5,-5 5,5 0 0 0 -5,-5 5,5 0 0 0 -5,5 z" />
    <path
       id="rect1038-1-5"
       style="fill:#ffffff;stroke-width:0"
       d="m 33.529171,28.558327 h 10 v -10 h -10 z" />
    <path
       id="path31-7-5-9-4-5"
       style="fill:#ffffff;fill-rule:evenodd;stroke-width:0"
       d="m 77.529175,28.558334 a 4.9999924,5 0 0 0 4.999992,5 4.9999924,5 0 0 0 4.999993,-5 4.9999924,5 0 0 0 -4.999993,-5 4.9999924,5 0 0 0 -4.999992,5 z" />
    <path
       id="path31-7-9-7-6-2-9"
       style="fill:#ffffff;fill-rule:evenodd;stroke-width:0"
       d="m 77.529175,16.058332 a 4.9999924,5 0 0 0 4.999992,5 4.9999924,5 0 0 0 4.999993,-5 4.9999924,5 0 0 0 -4.999993,-5 4.9999924,5 0 0 0 -4.999992,5 z" />
    <path
       id="path31-7-9-5-4-6-5-8"
       style="fill:#ffffff;fill-rule:evenodd;stroke-width:0"
       d="m 77.529175,6.0583334 a 4.9999924,5 0 0 0 4.999992,4.9999996 4.9999924,5 0 0 0 4.999993,-4.9999996 4.9999924,5 0 0 0 -4.999993,-5 4.9999924,5 0 0 0 -4.999992,5 z" />
    <path
       id="rect1038-1-9-0-4"
       style="fill:#ffffff;stroke-width:0"
       d="m 77.529167,16.058332 h 9.999985 V 6.0583324 h -9.999985 z" />
    <path
       id="path31-0"
       style="fill:#ffffff;fill-rule:evenodd;stroke-width:0"
       d="m 88.529167,12.308 a 5,5 0 0 1 5,-5 5,5 0 0 1 5,5 5,5 0 0 1 -5,5 5,5 0 0 1 -5,-5 z" />
    <path
       id="path31-7-5-9-4-4"
       style="fill:#ffffff;fill-rule:evenodd;stroke-width:0"
       d="m 132.52916,33.558334 a 5,5 0 0 1 5,-5 5,5 0 0 1 5,5 5,5 0 0 1 -5,5 5,5 0 0 1 -5,-5 z" />
    <path
       id="path31-7-9-7-6-2-7"
       style="fill:#ffffff;fill-rule:evenodd;stroke-width:0"
       d="m 132.52915,46.058334 a 5,5 0 0 1 5,-5 5,5 0 0 1 5,5 5,5 0 0 1 -5,5 5,5 0 0 1 -5,-5 z" />
    <path
       id="path31-7-9-5-4-6-5-7"
       style="fill:#ffffff;fill-rule:evenodd;stroke-width:0"
       d="m 132.52916,56.058334 a 5,5 0 0 1 5,-5 5,5 0 0 1 5,5 5,5 0 0 1 -5,5 5,5 0 0 1 -5,-5 z" />
    <path
       id="rect1038-1-9-0-7"
       style="fill:#ffffff;stroke-width:0"
       d="m 132.52915,46.058334 h 10 v 10 h -10 z" />
    <path
       id="path31-7-3-7"
       style="fill:#ffffff;fill-rule:evenodd;stroke-width:0"
       d="m 165.52915,56.058334 a 5,5 0 0 1 5,-5 5,5 0 0 1 5,5 5,5 0 0 1 -5,5 5,5 0 0 1 -5,-5 z" />
    <path
       id="path31-7-9-7"
       style="fill:#ffffff;fill-rule:evenodd;stroke-width:0"
       d="m 165.52915,33.558334 a 5,5 0 0 1 5,-5 5,5 0 0 1 5,5 5,5 0 0 1 -5,5 5,5 0 0 1 -5,-5 z" />
    <path
       id="path31-7-9-5-4"
       style="fill:#ffffff;fill-rule:evenodd;stroke-width:0"
       d="m 165.52915,43.558334 a 5,5 0 0 1 5,-5 5,5 0 0 1 5,5 5,5 0 0 1 -5,5 5,5 0 0 1 -5,-5 z" />
    <path
       id="rect1038-1"
       style="fill:#ffffff;stroke-width:0"
       d="m 165.52915,33.558334 h 10 v 10 h -10 z" />
    <path
       id="path31-7-9-7-4"
       style="fill:#ffffff;fill-rule:evenodd;stroke-width:0"
       d="m 187.52915,23.558334 a 5,5 0 0 1 5,-5 5,5 0 0 1 5,5 5,5 0 0 1 -5,5 5,5 0 0 1 -5,-5 z" />
    <path
       id="path31-7-9-5-4-9"
       style="fill:#ffffff;fill-rule:evenodd;stroke-width:0"
       d="m 187.52915,38.558334 a 5,5 0 0 1 5,-5 5,5 0 0 1 5,5 5,5 0 0 1 -5,5 5,5 0 0 1 -5,-5 z" />
    <path
       id="rect1038-1-6"
       style="fill:#ffffff;stroke-width:0"
       d="m 187.52915,23.558334 h 10 v 15 h -10 z" />
    <path
       id="path31-7-5-9-1-7-4-1"
       style="fill:#ffffff;fill-rule:evenodd;stroke-width:0"
       d="m 220.52915,56.058334 a 5,5 0 0 0 5,5 5,5 0 0 0 5,-5 5,5 0 0 0 -5,-5 5,5 0 0 0 -5,5 z" />
    <path
       id="path31-7-9-9"
       style="fill:#ffffff;fill-rule:evenodd;stroke-width:0"
       d="m 220.52915,6.0583363 a 5,5 0 0 1 5,-5 5,5 0 0 1 5,5 5,5 0 0 1 -5,4.9999997 5,5 0 0 1 -5,-4.9999997 z" />
    <path
       id="path31-7-9-5-48"
       style="fill:#ffffff;fill-rule:evenodd;stroke-width:0"
       d="m 220.52915,16.058336 a 5,5 0 0 1 5,-5 5,5 0 0 1 5,5 5,5 0 0 1 -5,5 5,5 0 0 1 -5,-5 z" />
    <path
       id="rect1038-8"
       style="fill:#ffffff;stroke-width:0"
       d="m 220.52915,6.0583363 h 10 v 9.9999997 h -10 z" />
    <path
       id="path31-7-9-7-4-8"
       style="fill:#ffffff;fill-rule:evenodd;stroke-width:0"
       d="m 121.52916,41.058334 a 5,5 0 0 1 5,-5 5,5 0 0 1 5,5 5,5 0 0 1 -5,5 5,5 0 0 1 -5,-5 z" />
    <path
       id="path31-7-9-5-4-9-9"
       style="fill:#ffffff;fill-rule:evenodd;stroke-width:0"
       d="m 121.52916,56.058334 a 5,5 0 0 1 5,-5 5,5 0 0 1 5,5 5,5 0 0 1 -5,5 5,5 0 0 1 -5,-5 z" />
    <path
       id="path31-7-5-8"
       style="fill:#ffffff;fill-rule:evenodd;stroke-width:0"
       d="m 22.529167,6.0583334 a 5,5 0 0 1 5,-5 5,5 0 0 1 5,5 5,5 0 0 1 -5,4.9999996 5,5 0 0 1 -5,-4.9999996 z" />
    <path
       id="path31-7-3-8"
       style="fill:#ffffff;fill-rule:evenodd;stroke-width:0"
       d="m 22.529167,56.058334 a 5,5 0 0 1 5,-5 5,5 0 0 1 5,5 5,5 0 0 1 -5,5 5,5 0 0 1 -5,-5 z" />
    <text
       xml:space="preserve"
       style="font-size:8.83116px;text-align:start;writing-mode:lr-tb;direction:ltr;text-anchor:start;fill:none;stroke:#000000;stroke-width:11.1258;stroke-linecap:round"
       x="2.5025764"
       y="-2.0698094"
       id="text1"
       transform="scale(1.0654653,0.93855711)"><tspan
         sodipodi:role="line"
         id="tspan1"
         style="font-style:normal;font-variant:normal;font-weight:normal;font-stretch:normal;font-family:'Cascadia Mono';-inkscape-font-specification:'Cascadia Mono';fill:#ffffff;stroke:none;stroke-width:11.1258"
         x="2.5025764"
         y="-2.0698094">a b c d e f g h i j k l m n o p q r s t u v w x y z</tspan></text>
  </g>
</svg>
