<?xml version="1.0" encoding="UTF-8" standalone="no"?>
<!-- Created with Inkscape (http://www.inkscape.org/) -->

<svg
   width="220mm"
   height="62mm"
   viewBox="0 0 220 62"
   version="1.1"
   id="svg5"
   inkscape:version="1.4.2 (f4327f4, 2025-05-13)"
   sodipodi:docname="numbers.svg"
   inkscape:export-filename="C:\Users\FamZauner\Pictures\CompactWritingSystem\letters.png"
   inkscape:export-xdpi="228.60001"
   inkscape:export-ydpi="228.60001"
   xmlns:inkscape="http://www.inkscape.org/namespaces/inkscape"
   xmlns:sodipodi="http://sodipodi.sourceforge.net/DTD/sodipodi-0.dtd"
   xmlns="http://www.w3.org/2000/svg"
   xmlns:svg="http://www.w3.org/2000/svg">
  <sodipodi:namedview
     id="namedview7"
     pagecolor="#000000"
     bordercolor="#666666"
     borderopacity="1.0"
     inkscape:pageshadow="2"
     inkscape:pageopacity="0"
     inkscape:pagecheckerboard="true"
     inkscape:document-units="mm"
     showgrid="false"
     inkscape:zoom="1.5800489"
     inkscape:cx="561.69149"
     inkscape:cy="80.060815"
     inkscape:window-width="1920"
     inkscape:window-height="1009"
     inkscape:window-x="-8"
     inkscape:window-y="-8"
     inkscape:window-maximized="1"
     inkscape:current-layer="layer1"
     inkscape:showpageshadow="2"
     inkscape:deskcolor="#000000" />
  <defs
     id="defs2" />
  <g
     inkscape:label="Layer 1"
     inkscape:groupmode="layer"
     id="layer1">
    <path
       id="path31-7-9-7-6-1-55"
       style="fill:#ffffff;fill-rule:evenodd;stroke-width:0"
       d="m 0.529,43.500001 a 5,5 0 0 0 5,5 5,5 0 0 0 5,-5 5,5 0 0 0 -5,-5 5,5 0 0 0 -5,5 z" />
    <path
       id="path31-7-9-5-4-6-2-17"
       style="fill:#ffffff;fill-rule:evenodd;stroke-width:0"
       d="m 0.529,6 a 5,5 0 0 0 5,5 5,5 0 0 0 5,-5 5,5 0 0 0 -5,-5 5,5 0 0 0 -5,5 z" />
    <path
       id="rect1038-1-9-7-11"
       style="fill:#ffffff;stroke-width:0"
       d="m 0.529,43.500001 h 10 v -37.5 h -10 z" />
    <path
       id="path31-7-9-7-6-1-55-7"
       style="fill:#ffffff;fill-rule:evenodd;stroke-width:0"
       d="m 22.529,43.500001 a 5,5 0 0 0 5,5 5,5 0 0 0 5,-5 5,5 0 0 0 -5,-5 5,5 0 0 0 -5,5 z" />
    <path
       id="path31-7-9-5-4-6-2-17-6"
       style="fill:#ffffff;fill-rule:evenodd;stroke-width:0"
       d="m 22.529,6 a 5,5 0 0 0 5,5 5,5 0 0 0 5,-5 5,5 0 0 0 -5,-5 5,5 0 0 0 -5,5 z" />
    <path
       id="rect1038-1-9-7-11-1"
       style="fill:#ffffff;stroke-width:0"
       d="m 22.529,43.500001 h 10 v -37.5 h -10 z" />
    <path
       id="path31-7-9-7-6-1-55-7-2"
       style="fill:#ffffff;fill-rule:evenodd;stroke-width:0"
       d="m 44.529,43.500001 a 5,5 0 0 0 5,5 5,5 0 0 0 5,-5 5,5 0 0 0 -5,-5 5,5 0 0 0 -5,5 z" />
    <path
       id="path31-7-9-5-4-6-2-17-6-2"
       style="fill:#ffffff;fill-rule:evenodd;stroke-width:0"
       d="m 44.529,6 a 5,5 0 0 0 5,5 5,5 0 0 0 5,-5 5,5 0 0 0 -5,-5 5,5 0 0 0 -5,5 z" />
    <path
       id="rect1038-1-9-7-11-1-1"
       style="fill:#ffffff;stroke-width:0"
       d="m 44.529,43.500001 h 10 v -37.5 h -10 z" />
    <path
       id="path31-7-3-7-9"
       style="fill:#ffffff;fill-rule:evenodd;stroke-width:0"
       d="m 11.529,56.000002 a 5,5 0 0 1 5,-5 5,5 0 0 1 5,5 5,5 0 0 1 -5,5 5,5 0 0 1 -5,-5 z" />
    <path
       id="path31-7-5-9-7-9-6-8"
       style="fill:#ffffff;fill-rule:evenodd;stroke-width:0"
       d="m 55.529,30.999998 a 5,5 0 0 1 5,-5 5,5 0 0 1 5,5 5,5 0 0 1 -5,5 5,5 0 0 1 -5,-5 z" />
    <path
       id="path31-7-5-9-7-1-8-1-5"
       style="fill:#ffffff;fill-rule:evenodd;stroke-width:0"
       d="m 55.529,43.500002 a 5,5 0 0 1 5,-5 5,5 0 0 1 5,5 5,5 0 0 1 -5,5 5,5 0 0 1 -5,-5 z" />
    <path
       id="path31-7-5-9-7-1-9-6-7-7"
       style="fill:#ffffff;fill-rule:evenodd;stroke-width:0"
       d="m 55.529,56.000002 a 5,5 0 0 1 5,-5 5,5 0 0 1 5,5 5,5 0 0 1 -5,5 5,5 0 0 1 -5,-5 z" />
    <path
       id="path31-7-3-7-9-2"
       style="fill:#ffffff;fill-rule:evenodd;stroke-width:0"
       d="m 33.529,43.500002 a 5,5 0 0 1 5,-5 5,5 0 0 1 5,5 5,5 0 0 1 -5,5 5,5 0 0 1 -5,-5 z" />
    <path
       id="path31-7-3-7-9-2-2"
       style="fill:#ffffff;fill-rule:evenodd;stroke-width:0"
       d="m 33.529,56.000002 a 5,5 0 0 1 5,-5 5,5 0 0 1 5,5 5,5 0 0 1 -5,5 5,5 0 0 1 -5,-5 z" />
    <path
       id="path31-7-5-9-7-9-6-8-1"
       style="fill:#ffffff;fill-rule:evenodd;stroke-width:0"
       d="m 77.529,18.5 a 5,5 0 0 1 5,-5 5,5 0 0 1 5,5 5,5 0 0 1 -5,5 5,5 0 0 1 -5,-5 z" />
    <path
       id="path31-7-5-9-7-1-8-1-5-8"
       style="fill:#ffffff;fill-rule:evenodd;stroke-width:0"
       d="m 77.529,31.000004 a 5,5 0 0 1 5,-5 5,5 0 0 1 5,5 5,5 0 0 1 -5,5 5,5 0 0 1 -5,-5 z" />
    <path
       id="path31-7-5-9-7-1-9-6-7-7-9"
       style="fill:#ffffff;fill-rule:evenodd;stroke-width:0"
       d="m 77.529,43.500004 a 5,5 0 0 1 5,-5 5,5 0 0 1 5,5 5,5 0 0 1 -5,5 5,5 0 0 1 -5,-5 z" />
    <path
       id="path31-7-5-9-7-1-9-6-7-7-9-4"
       style="fill:#ffffff;fill-rule:evenodd;stroke-width:0"
       d="m 77.529,56.000002 a 5,5 0 0 1 5,-5 5,5 0 0 1 5,5 5,5 0 0 1 -5,5 5,5 0 0 1 -5,-5 z" />
    <path
       id="path31-7-9-7-6-1-55-7-2-2"
       style="fill:#ffffff;fill-rule:evenodd;stroke-width:0"
       d="m 66.529,43.500001 a 5,5 0 0 0 5,5 5,5 0 0 0 5,-5 5,5 0 0 0 -5,-5 5,5 0 0 0 -5,5 z" />
    <path
       id="path31-7-9-5-4-6-2-17-6-2-7"
       style="fill:#ffffff;fill-rule:evenodd;stroke-width:0"
       d="m 66.529,6 a 5,5 0 0 0 5,5 5,5 0 0 0 5,-5 5,5 0 0 0 -5,-5 5,5 0 0 0 -5,5 z" />
    <path
       id="rect1038-1-9-7-11-1-1-9"
       style="fill:#ffffff;stroke-width:0"
       d="m 66.529,43.500001 h 10 v -37.5 h -10 z" />
    <path
       id="path31-7-5-9-7-9-6-8-1-2"
       style="fill:#ffffff;fill-rule:evenodd;stroke-width:0"
       d="m 99.529,5.9999995 a 5,5 0 0 1 5,-5 5,5 0 0 1 5,5 5,5 0 0 1 -5,5.0000005 5,5 0 0 1 -5,-5.0000005 z" />
    <path
       id="path31-7-5-9-7-1-8-1-5-8-3"
       style="fill:#ffffff;fill-rule:evenodd;stroke-width:0"
       d="m 99.529,18.500004 a 5,5 0 0 1 5,-5 5,5 0 0 1 5,5 5,5 0 0 1 -5,5 5,5 0 0 1 -5,-5 z" />
    <path
       id="path31-7-5-9-7-1-9-6-7-7-9-3"
       style="fill:#ffffff;fill-rule:evenodd;stroke-width:0"
       d="m 99.529,31.000004 a 5,5 0 0 1 5,-5 5,5 0 0 1 5,5 5,5 0 0 1 -5,4.999999 5,5 0 0 1 -5,-4.999999 z" />
    <path
       id="path31-7-5-9-7-1-9-6-7-7-9-4-4"
       style="fill:#ffffff;fill-rule:evenodd;stroke-width:0"
       d="m 99.529,43.500001 a 5,5 0 0 1 5,-5 5,5 0 0 1 5,5 5,5 0 0 1 -5,5 5,5 0 0 1 -5,-5 z" />
    <path
       id="path31-7-5-9-7-1-9-6-7-7-9-4-4-7"
       style="fill:#ffffff;fill-rule:evenodd;stroke-width:0"
       d="m 99.529,56 a 5,5 0 0 1 5,-5 5,5 0 0 1 5,5 5,5 0 0 1 -5,5.000001 A 5,5 0 0 1 99.529,56 Z" />
    <path
       id="path31-7-9-7-6-1-55-7-2-2-1"
       style="fill:#ffffff;fill-rule:evenodd;stroke-width:0"
       d="m 88.529,43.500001 a 5,5 0 0 0 5,5 5,5 0 0 0 5,-5 5,5 0 0 0 -5,-5 5,5 0 0 0 -5,5 z" />
    <path
       id="path31-7-9-5-4-6-2-17-6-2-7-1"
       style="fill:#ffffff;fill-rule:evenodd;stroke-width:0"
       d="m 88.529,6 a 5,5 0 0 0 5,5 5,5 0 0 0 5,-5 5,5 0 0 0 -5,-5 5,5 0 0 0 -5,5 z" />
    <path
       id="rect1038-1-9-7-11-1-1-9-3"
       style="fill:#ffffff;stroke-width:0"
       d="m 88.529,43.500001 h 10 v -37.5 h -10 z" />
    <path
       id="path31-7-9-7-6-1-55-6"
       style="fill:#ffffff;fill-rule:evenodd;stroke-width:0"
       d="m 110.529,18.500001 a 5,5 0 0 1 5,-5 5,5 0 0 1 5,5 5,5 0 0 1 -5,5 5,5 0 0 1 -5,-5 z" />
    <path
       id="path31-7-9-5-4-6-2-17-1"
       style="fill:#ffffff;fill-rule:evenodd;stroke-width:0"
       d="m 110.529,56.000002 a 5,5 0 0 1 5,-5 5,5 0 0 1 5,5 5,5 0 0 1 -5,5 5,5 0 0 1 -5,-5 z" />
    <path
       id="rect1038-1-9-7-11-8"
       style="fill:#ffffff;stroke-width:0"
       d="m 110.529,18.500001 h 10 v 37.5 h -10 z" />
    <path
       id="path31-7-9-7-6-1-55-7-4"
       style="fill:#ffffff;fill-rule:evenodd;stroke-width:0"
       d="m 132.529,18.500001 a 5,5 0 0 1 5,-5 5,5 0 0 1 5,5 5,5 0 0 1 -5,5 5,5 0 0 1 -5,-5 z" />
    <path
       id="path31-7-9-5-4-6-2-17-6-9"
       style="fill:#ffffff;fill-rule:evenodd;stroke-width:0"
       d="m 132.529,56.000002 a 5,5 0 0 1 5,-5 5,5 0 0 1 5,5 5,5 0 0 1 -5,5 5,5 0 0 1 -5,-5 z" />
    <path
       id="rect1038-1-9-7-11-1-6"
       style="fill:#ffffff;stroke-width:0"
       d="m 132.529,18.500001 h 10 v 37.5 h -10 z" />
    <path
       id="path31-7-9-7-6-1-55-7-2-3"
       style="fill:#ffffff;fill-rule:evenodd;stroke-width:0"
       d="m 154.529,18.500001 a 5,5 0 0 1 5,-5 5,5 0 0 1 5,5 5,5 0 0 1 -5,5 5,5 0 0 1 -5,-5 z" />
    <path
       id="path31-7-9-5-4-6-2-17-6-2-78"
       style="fill:#ffffff;fill-rule:evenodd;stroke-width:0"
       d="m 154.529,56.000002 a 5,5 0 0 1 5,-5 5,5 0 0 1 5,5 5,5 0 0 1 -5,5 5,5 0 0 1 -5,-5 z" />
    <path
       id="rect1038-1-9-7-11-1-1-8"
       style="fill:#ffffff;stroke-width:0"
       d="m 154.529,18.500001 h 10 v 37.5 h -10 z" />
    <path
       id="path31-7-3-7-9-29"
       style="fill:#ffffff;fill-rule:evenodd;stroke-width:0"
       d="m 121.529,6 a 5,5 0 0 0 5,5 5,5 0 0 0 5,-5 5,5 0 0 0 -5,-5 5,5 0 0 0 -5,5 z" />
    <path
       id="path31-7-5-9-7-9-6-8-13"
       style="fill:#ffffff;fill-rule:evenodd;stroke-width:0"
       d="m 165.529,31.000004 a 5,5 0 0 0 5,5 5,5 0 0 0 5,-5 5,5 0 0 0 -5,-5 5,5 0 0 0 -5,5 z" />
    <path
       id="path31-7-5-9-7-1-8-1-5-5"
       style="fill:#ffffff;fill-rule:evenodd;stroke-width:0"
       d="m 165.529,18.5 a 5,5 0 0 0 5,5 5,5 0 0 0 5,-5 5,5 0 0 0 -5,-5 5,5 0 0 0 -5,5 z" />
    <path
       id="path31-7-5-9-7-1-9-6-7-7-98"
       style="fill:#ffffff;fill-rule:evenodd;stroke-width:0"
       d="m 165.529,6 a 5,5 0 0 0 5,5 5,5 0 0 0 5,-5 5,5 0 0 0 -5,-5 5,5 0 0 0 -5,5 z" />
    <path
       id="path31-7-3-7-9-2-4"
       style="fill:#ffffff;fill-rule:evenodd;stroke-width:0"
       d="m 143.529,18.5 a 5,5 0 0 0 5,5 5,5 0 0 0 5,-5 5,5 0 0 0 -5,-5 5,5 0 0 0 -5,5 z" />
    <path
       id="path31-7-3-7-9-2-2-0"
       style="fill:#ffffff;fill-rule:evenodd;stroke-width:0"
       d="m 143.529,6 a 5,5 0 0 0 5,5 5,5 0 0 0 5,-5 5,5 0 0 0 -5,-5 5,5 0 0 0 -5,5 z" />
    <path
       id="path31-7-5-9-7-9-6-8-1-7"
       style="fill:#ffffff;fill-rule:evenodd;stroke-width:0"
       d="m 187.529,43.500002 a 5,5 0 0 0 5,5 5,5 0 0 0 5,-5 5,5 0 0 0 -5,-5 5,5 0 0 0 -5,5 z" />
    <path
       id="path31-7-5-9-7-1-8-1-5-8-6"
       style="fill:#ffffff;fill-rule:evenodd;stroke-width:0"
       d="m 187.529,30.999998 a 5,5 0 0 0 5,5 5,5 0 0 0 5,-5 5,5 0 0 0 -5,-5 5,5 0 0 0 -5,5 z" />
    <path
       id="path31-7-5-9-7-1-9-6-7-7-9-36"
       style="fill:#ffffff;fill-rule:evenodd;stroke-width:0"
       d="m 187.529,18.499998 a 5,5 0 0 0 5,5 5,5 0 0 0 5,-5 5,5 0 0 0 -5,-5 5,5 0 0 0 -5,5 z" />
    <path
       id="path31-7-5-9-7-1-9-6-7-7-9-4-1"
       style="fill:#ffffff;fill-rule:evenodd;stroke-width:0"
       d="m 187.529,6 a 5,5 0 0 0 5,5 5,5 0 0 0 5,-5 5,5 0 0 0 -5,-5 5,5 0 0 0 -5,5 z" />
    <path
       id="path31-7-9-7-6-1-55-7-2-2-5"
       style="fill:#ffffff;fill-rule:evenodd;stroke-width:0"
       d="m 176.529,18.5 a 5,5 0 0 1 5,-5 5,5 0 0 1 5,5 5,5 0 0 1 -5,5 5,5 0 0 1 -5,-5 z" />
    <path
       id="path31-7-9-5-4-6-2-17-6-2-7-4"
       style="fill:#ffffff;fill-rule:evenodd;stroke-width:0"
       d="m 176.529,56.000001 a 5,5 0 0 1 5,-5 5,5 0 0 1 5,5 5,5 0 0 1 -5,5 5,5 0 0 1 -5,-5 z" />
    <path
       id="rect1038-1-9-7-11-1-1-9-2"
       style="fill:#ffffff;stroke-width:0"
       d="m 176.529,18.5 h 10 V 56 h -10 z" />
    <path
       id="path31-7-5-9-7-9-6-8-1-2-0"
       style="fill:#ffffff;fill-rule:evenodd;stroke-width:0"
       d="m 209.529,56.000002 a 5,5 0 0 0 5,5 5,5 0 0 0 5,-5 5,5 0 0 0 -5,-5 5,5 0 0 0 -5,5 z" />
    <path
       id="path31-7-5-9-7-1-8-1-5-8-3-9"
       style="fill:#ffffff;fill-rule:evenodd;stroke-width:0"
       d="m 209.529,43.499998 a 5,5 0 0 0 5,5 5,5 0 0 0 5,-5 5,5 0 0 0 -5,-5 5,5 0 0 0 -5,5 z" />
    <path
       id="path31-7-5-9-7-1-9-6-7-7-9-3-7"
       style="fill:#ffffff;fill-rule:evenodd;stroke-width:0"
       d="m 209.529,30.999998 a 5,5 0 0 0 5,5 5,5 0 0 0 5,-5 5,5 0 0 0 -5,-4.999999 5,5 0 0 0 -5,4.999999 z" />
    <path
       id="path31-7-5-9-7-1-9-6-7-7-9-4-4-3"
       style="fill:#ffffff;fill-rule:evenodd;stroke-width:0"
       d="m 209.529,18.500001 a 5,5 0 0 0 5,5 5,5 0 0 0 5,-5 5,5 0 0 0 -5,-5 5,5 0 0 0 -5,5 z" />
    <path
       id="path31-7-5-9-7-1-9-6-7-7-9-4-4-7-7"
       style="fill:#ffffff;fill-rule:evenodd;stroke-width:0"
       d="m 209.529,6.000002 a 5,5 0 0 0 5,5 5,5 0 0 0 5,-5 5,5 0 0 0 -5,-5.000001 5,5 0 0 0 -5,5.000001 z" />
    <path
       id="path31-7-9-7-6-1-55-7-2-2-1-2"
       style="fill:#ffffff;fill-rule:evenodd;stroke-width:0"
       d="m 198.529,18.500001 a 5,5 0 0 1 5,-5 5,5 0 0 1 5,5 5,5 0 0 1 -5,5 5,5 0 0 1 -5,-5 z" />
    <path
       id="path31-7-9-5-4-6-2-17-6-2-7-1-6"
       style="fill:#ffffff;fill-rule:evenodd;stroke-width:0"
       d="m 198.529,56.000002 a 5,5 0 0 1 5,-5 5,5 0 0 1 5,5 5,5 0 0 1 -5,5 5,5 0 0 1 -5,-5 z" />
    <path
       id="rect1038-1-9-7-11-1-1-9-3-0"
       style="fill:#ffffff;stroke-width:0"
       d="m 198.529,18.500001 h 10 v 37.5 h -10 z" />
  </g>
</svg>
