<?xml version="1.0" encoding="UTF-8" standalone="no"?>
<!-- Created with Inkscape (http://www.inkscape.org/) -->

<svg
   width="11mm"
   height="62mm"
   viewBox="0 0 11 62"
   version="1.1"
   id="svg5"
   inkscape:version="1.4.2 (f4327f4, 2025-05-13)"
   sodipodi:docname="uppercase-symbol.svg"
   inkscape:export-filename="C:\Users\FamZauner\Pictures\CompactWritingSystem\letters.png"
   inkscape:export-xdpi="228.60001"
   inkscape:export-ydpi="228.60001"
   xmlns:inkscape="http://www.inkscape.org/namespaces/inkscape"
   xmlns:sodipodi="http://sodipodi.sourceforge.net/DTD/sodipodi-0.dtd"
   xmlns="http://www.w3.org/2000/svg"
   xmlns:svg="http://www.w3.org/2000/svg">
  <sodipodi:namedview
     id="namedview7"
     pagecolor="#000000"
     bordercolor="#666666"
     borderopacity="1.0"
     inkscape:pageshadow="2"
     inkscape:pageopacity="0"
     inkscape:pagecheckerboard="true"
     inkscape:document-units="mm"
     showgrid="false"
     inkscape:zoom="2.8284272"
     inkscape:cx="-3.7123105"
     inkscape:cy="102.70726"
     inkscape:window-width="1920"
     inkscape:window-height="1009"
     inkscape:window-x="-8"
     inkscape:window-y="-8"
     inkscape:window-maximized="1"
     inkscape:current-layer="layer1"
     inkscape:showpageshadow="2"
     inkscape:deskcolor="#000000" />
  <defs
     id="defs2" />
  <g
     inkscape:label="Layer 1"
     inkscape:groupmode="layer"
     id="layer1">
    <path
       id="path31-7-9-7-4-67-5"
       style="fill:#ffffff;fill-rule:evenodd;stroke-width:0"
       d="m 0.5,5.999999 a 5,5 0 0 1 5,-5 5,5 0 0 1 5,5 5,5 0 0 1 -5,5 5,5 0 0 1 -5,-5 z" />
    <path
       id="rect1038-1-6-2-1"
       style="fill:#ffffff;stroke-width:0"
       d="m 0.5,5.999999 h 10 v 50 h -10 z" />
    <path
       id="path31-7-9-5-4-9-6-6-1"
       style="fill:#ffffff;fill-rule:evenodd;stroke-width:0"
       d="m 0.5,56 a 5,5 0 0 1 5,-5 5,5 0 0 1 5,5 5,5 0 0 1 -5,5 5,5 0 0 1 -5,-5 z" />
  </g>
</svg>
