<svg xmlns="http://www.w3.org/2000/svg" viewBox="44.0 0.0 22.0 62.0">
<svg:path xmlns:svg="http://www.w3.org/2000/svg" id="path31-7-9-7-6-1-55-7-2" style="fill:#ffffff;fill-rule:evenodd;stroke-width:0" d="m 44.529,43.500001 a 5,5 0 0 0 5,5 5,5 0 0 0 5,-5 5,5 0 0 0 -5,-5 5,5 0 0 0 -5,5 z" />
    <svg:path xmlns:svg="http://www.w3.org/2000/svg" id="path31-7-9-5-4-6-2-17-6-2" style="fill:#ffffff;fill-rule:evenodd;stroke-width:0" d="m 44.529,6 a 5,5 0 0 0 5,5 5,5 0 0 0 5,-5 5,5 0 0 0 -5,-5 5,5 0 0 0 -5,5 z" />
    <svg:path xmlns:svg="http://www.w3.org/2000/svg" id="rect1038-1-9-7-11-1-1" style="fill:#ffffff;stroke-width:0" d="m 44.529,43.500001 h 10 v -37.5 h -10 z" />
    <svg:path xmlns:svg="http://www.w3.org/2000/svg" id="path31-7-5-9-7-9-6-8" style="fill:#ffffff;fill-rule:evenodd;stroke-width:0" d="m 55.529,30.999998 a 5,5 0 0 1 5,-5 5,5 0 0 1 5,5 5,5 0 0 1 -5,5 5,5 0 0 1 -5,-5 z" />
    <svg:path xmlns:svg="http://www.w3.org/2000/svg" id="path31-7-5-9-7-1-8-1-5" style="fill:#ffffff;fill-rule:evenodd;stroke-width:0" d="m 55.529,43.500002 a 5,5 0 0 1 5,-5 5,5 0 0 1 5,5 5,5 0 0 1 -5,5 5,5 0 0 1 -5,-5 z" />
    <svg:path xmlns:svg="http://www.w3.org/2000/svg" id="path31-7-5-9-7-1-9-6-7-7" style="fill:#ffffff;fill-rule:evenodd;stroke-width:0" d="m 55.529,56.000002 a 5,5 0 0 1 5,-5 5,5 0 0 1 5,5 5,5 0 0 1 -5,5 5,5 0 0 1 -5,-5 z" />
    
</svg>