<svg xmlns="http://www.w3.org/2000/svg" viewBox="66.0 0.0 22.0 62.0">
<svg:path xmlns:svg="http://www.w3.org/2000/svg" id="path31-7-5-9-7-9-6-8-1" style="fill:#ffffff;fill-rule:evenodd;stroke-width:0" d="m 77.529,18.5 a 5,5 0 0 1 5,-5 5,5 0 0 1 5,5 5,5 0 0 1 -5,5 5,5 0 0 1 -5,-5 z" />
    <svg:path xmlns:svg="http://www.w3.org/2000/svg" id="path31-7-5-9-7-1-8-1-5-8" style="fill:#ffffff;fill-rule:evenodd;stroke-width:0" d="m 77.529,31.000004 a 5,5 0 0 1 5,-5 5,5 0 0 1 5,5 5,5 0 0 1 -5,5 5,5 0 0 1 -5,-5 z" />
    <svg:path xmlns:svg="http://www.w3.org/2000/svg" id="path31-7-5-9-7-1-9-6-7-7-9" style="fill:#ffffff;fill-rule:evenodd;stroke-width:0" d="m 77.529,43.500004 a 5,5 0 0 1 5,-5 5,5 0 0 1 5,5 5,5 0 0 1 -5,5 5,5 0 0 1 -5,-5 z" />
    <svg:path xmlns:svg="http://www.w3.org/2000/svg" id="path31-7-5-9-7-1-9-6-7-7-9-4" style="fill:#ffffff;fill-rule:evenodd;stroke-width:0" d="m 77.529,56.000002 a 5,5 0 0 1 5,-5 5,5 0 0 1 5,5 5,5 0 0 1 -5,5 5,5 0 0 1 -5,-5 z" />
    <svg:path xmlns:svg="http://www.w3.org/2000/svg" id="path31-7-9-7-6-1-55-7-2-2" style="fill:#ffffff;fill-rule:evenodd;stroke-width:0" d="m 66.529,44.022001 a 5,5 0 0 0 5,5 5,5 0 0 0 5,-5 5,5 0 0 0 -5,-5 5,5 0 0 0 -5,5 z" />
    <svg:path xmlns:svg="http://www.w3.org/2000/svg" id="path31-7-9-5-4-6-2-17-6-2-7" style="fill:#ffffff;fill-rule:evenodd;stroke-width:0" d="m 66.529,6.522 a 5,5 0 0 0 5,5 5,5 0 0 0 5,-5 5,5 0 0 0 -5,-5 5,5 0 0 0 -5,5 z" />
    <svg:path xmlns:svg="http://www.w3.org/2000/svg" id="rect1038-1-9-7-11-1-1-9" style="fill:#ffffff;stroke-width:0" d="m 66.529,44.022001 h 10 v -37.5 h -10 z" />
    
</svg>