<svg xmlns="http://www.w3.org/2000/svg" viewBox="88.0 0.0 22.0 62.0">
<svg:path xmlns:svg="http://www.w3.org/2000/svg" id="path31-7-5-9-7-9-6-8-1-2" style="fill:#ffffff;fill-rule:evenodd;stroke-width:0" d="m 99.529,5.9999995 a 5,5 0 0 1 5,-5 5,5 0 0 1 5,5 5,5 0 0 1 -5,5.0000005 5,5 0 0 1 -5,-5.0000005 z" />
    <svg:path xmlns:svg="http://www.w3.org/2000/svg" id="path31-7-5-9-7-1-8-1-5-8-3" style="fill:#ffffff;fill-rule:evenodd;stroke-width:0" d="m 99.529,18.500004 a 5,5 0 0 1 5,-5 5,5 0 0 1 5,5 5,5 0 0 1 -5,5 5,5 0 0 1 -5,-5 z" />
    <svg:path xmlns:svg="http://www.w3.org/2000/svg" id="path31-7-5-9-7-1-9-6-7-7-9-3" style="fill:#ffffff;fill-rule:evenodd;stroke-width:0" d="m 99.529,31.000004 a 5,5 0 0 1 5,-5 5,5 0 0 1 5,5 5,5 0 0 1 -5,4.999999 5,5 0 0 1 -5,-4.999999 z" />
    <svg:path xmlns:svg="http://www.w3.org/2000/svg" id="path31-7-5-9-7-1-9-6-7-7-9-4-4" style="fill:#ffffff;fill-rule:evenodd;stroke-width:0" d="m 99.529,43.500001 a 5,5 0 0 1 5,-5 5,5 0 0 1 5,5 5,5 0 0 1 -5,5 5,5 0 0 1 -5,-5 z" />
    <svg:path xmlns:svg="http://www.w3.org/2000/svg" id="path31-7-5-9-7-1-9-6-7-7-9-4-4-7" style="fill:#ffffff;fill-rule:evenodd;stroke-width:0" d="m 99.529,56 a 5,5 0 0 1 5,-5 5,5 0 0 1 5,5 5,5 0 0 1 -5,5.000001 A 5,5 0 0 1 99.529,56 Z" />
    <svg:path xmlns:svg="http://www.w3.org/2000/svg" id="path31-7-9-7-6-1-55-7-2-2-1" style="fill:#ffffff;fill-rule:evenodd;stroke-width:0" d="m 88.529,43.500001 a 5,5 0 0 0 5,5 5,5 0 0 0 5,-5 5,5 0 0 0 -5,-5 5,5 0 0 0 -5,5 z" />
    <svg:path xmlns:svg="http://www.w3.org/2000/svg" id="path31-7-9-5-4-6-2-17-6-2-7-1" style="fill:#ffffff;fill-rule:evenodd;stroke-width:0" d="m 88.529,6 a 5,5 0 0 0 5,5 5,5 0 0 0 5,-5 5,5 0 0 0 -5,-5 5,5 0 0 0 -5,5 z" />
    <svg:path xmlns:svg="http://www.w3.org/2000/svg" id="rect1038-1-9-7-11-1-1-9-3" style="fill:#ffffff;stroke-width:0" d="m 88.529,43.500001 h 10 v -37.5 h -10 z" />
    
</svg>