<svg xmlns="http://www.w3.org/2000/svg" viewBox="110.0 0.0 22.0 62.0">
<svg:path xmlns:svg="http://www.w3.org/2000/svg" id="path31-7-9-7-6-1-55-6" style="fill:#ffffff;fill-rule:evenodd;stroke-width:0" d="m 110.529,18.500001 a 5,5 0 0 1 5,-5 5,5 0 0 1 5,5 5,5 0 0 1 -5,5 5,5 0 0 1 -5,-5 z" />
    <svg:path xmlns:svg="http://www.w3.org/2000/svg" id="path31-7-9-5-4-6-2-17-1" style="fill:#ffffff;fill-rule:evenodd;stroke-width:0" d="m 110.529,56.000002 a 5,5 0 0 1 5,-5 5,5 0 0 1 5,5 5,5 0 0 1 -5,5 5,5 0 0 1 -5,-5 z" />
    <svg:path xmlns:svg="http://www.w3.org/2000/svg" id="rect1038-1-9-7-11-8" style="fill:#ffffff;stroke-width:0" d="m 110.529,18.500001 h 10 v 37.5 h -10 z" />
    <svg:path xmlns:svg="http://www.w3.org/2000/svg" id="path31-7-3-7-9-29" style="fill:#ffffff;fill-rule:evenodd;stroke-width:0" d="m 121.529,6 a 5,5 0 0 0 5,5 5,5 0 0 0 5,-5 5,5 0 0 0 -5,-5 5,5 0 0 0 -5,5 z" />
    
</svg>