<svg xmlns="http://www.w3.org/2000/svg" viewBox="176.0 0.0 22.0 62.0">
<svg:path xmlns:svg="http://www.w3.org/2000/svg" id="path31-7-5-9-7-9-6-8-1-7" style="fill:#ffffff;fill-rule:evenodd;stroke-width:0" d="m 187.529,43.500002 a 5,5 0 0 0 5,5 5,5 0 0 0 5,-5 5,5 0 0 0 -5,-5 5,5 0 0 0 -5,5 z" />
    <svg:path xmlns:svg="http://www.w3.org/2000/svg" id="path31-7-5-9-7-1-8-1-5-8-6" style="fill:#ffffff;fill-rule:evenodd;stroke-width:0" d="m 187.529,30.999998 a 5,5 0 0 0 5,5 5,5 0 0 0 5,-5 5,5 0 0 0 -5,-5 5,5 0 0 0 -5,5 z" />
    <svg:path xmlns:svg="http://www.w3.org/2000/svg" id="path31-7-5-9-7-1-9-6-7-7-9-36" style="fill:#ffffff;fill-rule:evenodd;stroke-width:0" d="m 187.529,18.499998 a 5,5 0 0 0 5,5 5,5 0 0 0 5,-5 5,5 0 0 0 -5,-5 5,5 0 0 0 -5,5 z" />
    <svg:path xmlns:svg="http://www.w3.org/2000/svg" id="path31-7-5-9-7-1-9-6-7-7-9-4-1" style="fill:#ffffff;fill-rule:evenodd;stroke-width:0" d="m 187.529,6 a 5,5 0 0 0 5,5 5,5 0 0 0 5,-5 5,5 0 0 0 -5,-5 5,5 0 0 0 -5,5 z" />
    <svg:path xmlns:svg="http://www.w3.org/2000/svg" id="path31-7-9-7-6-1-55-7-2-2-5" style="fill:#ffffff;fill-rule:evenodd;stroke-width:0" d="m 176.529,18.5 a 5,5 0 0 1 5,-5 5,5 0 0 1 5,5 5,5 0 0 1 -5,5 5,5 0 0 1 -5,-5 z" />
    <svg:path xmlns:svg="http://www.w3.org/2000/svg" id="path31-7-9-5-4-6-2-17-6-2-7-4" style="fill:#ffffff;fill-rule:evenodd;stroke-width:0" d="m 176.529,56.000001 a 5,5 0 0 1 5,-5 5,5 0 0 1 5,5 5,5 0 0 1 -5,5 5,5 0 0 1 -5,-5 z" />
    <svg:path xmlns:svg="http://www.w3.org/2000/svg" id="rect1038-1-9-7-11-1-1-9-2" style="fill:#ffffff;stroke-width:0" d="m 176.529,18.5 h 10 V 56 h -10 z" />
    
</svg>