<svg xmlns="http://www.w3.org/2000/svg" viewBox="198.0 0.0 22.0 62.0">
<svg:path xmlns:svg="http://www.w3.org/2000/svg" id="path31-7-5-9-7-9-6-8-1-2-0" style="fill:#ffffff;fill-rule:evenodd;stroke-width:0" d="m 209.529,56.000002 a 5,5 0 0 0 5,5 5,5 0 0 0 5,-5 5,5 0 0 0 -5,-5 5,5 0 0 0 -5,5 z" />
    <svg:path xmlns:svg="http://www.w3.org/2000/svg" id="path31-7-5-9-7-1-8-1-5-8-3-9" style="fill:#ffffff;fill-rule:evenodd;stroke-width:0" d="m 209.529,43.499998 a 5,5 0 0 0 5,5 5,5 0 0 0 5,-5 5,5 0 0 0 -5,-5 5,5 0 0 0 -5,5 z" />
    <svg:path xmlns:svg="http://www.w3.org/2000/svg" id="path31-7-5-9-7-1-9-6-7-7-9-3-7" style="fill:#ffffff;fill-rule:evenodd;stroke-width:0" d="m 209.529,30.999998 a 5,5 0 0 0 5,5 5,5 0 0 0 5,-5 5,5 0 0 0 -5,-4.999999 5,5 0 0 0 -5,4.999999 z" />
    <svg:path xmlns:svg="http://www.w3.org/2000/svg" id="path31-7-5-9-7-1-9-6-7-7-9-4-4-3" style="fill:#ffffff;fill-rule:evenodd;stroke-width:0" d="m 209.529,18.500001 a 5,5 0 0 0 5,5 5,5 0 0 0 5,-5 5,5 0 0 0 -5,-5 5,5 0 0 0 -5,5 z" />
    <svg:path xmlns:svg="http://www.w3.org/2000/svg" id="path31-7-5-9-7-1-9-6-7-7-9-4-4-7-7" style="fill:#ffffff;fill-rule:evenodd;stroke-width:0" d="m 209.529,6.000002 a 5,5 0 0 0 5,5 5,5 0 0 0 5,-5 5,5 0 0 0 -5,-5.000001 5,5 0 0 0 -5,5.000001 z" />
    <svg:path xmlns:svg="http://www.w3.org/2000/svg" id="path31-7-9-7-6-1-55-7-2-2-1-2" style="fill:#ffffff;fill-rule:evenodd;stroke-width:0" d="m 198.529,18.500001 a 5,5 0 0 1 5,-5 5,5 0 0 1 5,5 5,5 0 0 1 -5,5 5,5 0 0 1 -5,-5 z" />
    <svg:path xmlns:svg="http://www.w3.org/2000/svg" id="path31-7-9-5-4-6-2-17-6-2-7-1-6" style="fill:#ffffff;fill-rule:evenodd;stroke-width:0" d="m 198.529,56.000002 a 5,5 0 0 1 5,-5 5,5 0 0 1 5,5 5,5 0 0 1 -5,5 5,5 0 0 1 -5,-5 z" />
    <svg:path xmlns:svg="http://www.w3.org/2000/svg" id="rect1038-1-9-7-11-1-1-9-3-0" style="fill:#ffffff;stroke-width:0" d="m 198.529,18.500001 h 10 v 37.5 h -10 z" />
  
</svg>