<svg xmlns="http://www.w3.org/2000/svg" viewBox="33.0 0.0 11.0 62.0">
<svg:path xmlns:svg="http://www.w3.org/2000/svg" id="path31-7-3-7-8" style="fill:#ffffff;fill-rule:evenodd;stroke-width:0" d="m 33.529167,6.0583334 a 5,5 0 0 0 5,4.9999996 5,5 0 0 0 5,-4.9999996 5,5 0 0 0 -5,-5 5,5 0 0 0 -5,5 z" />
    <svg:path xmlns:svg="http://www.w3.org/2000/svg" id="path31-7-9-7-31" style="fill:#ffffff;fill-rule:evenodd;stroke-width:0" d="m 33.529167,28.558327 a 5,5 0 0 0 5,5 5,5 0 0 0 5,-5 5,5 0 0 0 -5,-5 5,5 0 0 0 -5,5 z" />
    <svg:path xmlns:svg="http://www.w3.org/2000/svg" id="path31-7-9-5-4-8" style="fill:#ffffff;fill-rule:evenodd;stroke-width:0" d="m 33.529167,18.558334 a 5,5 0 0 0 5,5 5,5 0 0 0 5,-5 5,5 0 0 0 -5,-5 5,5 0 0 0 -5,5 z" />
    <svg:path xmlns:svg="http://www.w3.org/2000/svg" id="rect1038-1-5" style="fill:#ffffff;stroke-width:0" d="m 33.529171,28.558327 h 10 v -10 h -10 z" />
    
</svg>