<svg xmlns="http://www.w3.org/2000/svg" viewBox="77.0 0.0 11.0 62.0">
<svg:path xmlns:svg="http://www.w3.org/2000/svg" id="path31-7-5-9-4-5" style="fill:#ffffff;fill-rule:evenodd;stroke-width:0" d="m 77.529175,28.558334 a 4.9999924,5 0 0 0 4.999992,5 4.9999924,5 0 0 0 4.999993,-5 4.9999924,5 0 0 0 -4.999993,-5 4.9999924,5 0 0 0 -4.999992,5 z" />
    <svg:path xmlns:svg="http://www.w3.org/2000/svg" id="path31-7-9-7-6-2-9" style="fill:#ffffff;fill-rule:evenodd;stroke-width:0" d="m 77.529175,16.058332 a 4.9999924,5 0 0 0 4.999992,5 4.9999924,5 0 0 0 4.999993,-5 4.9999924,5 0 0 0 -4.999993,-5 4.9999924,5 0 0 0 -4.999992,5 z" />
    <svg:path xmlns:svg="http://www.w3.org/2000/svg" id="path31-7-9-5-4-6-5-8" style="fill:#ffffff;fill-rule:evenodd;stroke-width:0" d="m 77.529175,6.0583334 a 4.9999924,5 0 0 0 4.999992,4.9999996 4.9999924,5 0 0 0 4.999993,-4.9999996 4.9999924,5 0 0 0 -4.999993,-5 4.9999924,5 0 0 0 -4.999992,5 z" />
    <svg:path xmlns:svg="http://www.w3.org/2000/svg" id="rect1038-1-9-0-4" style="fill:#ffffff;stroke-width:0" d="m 77.529167,16.058332 h 9.999985 V 6.0583324 h -9.999985 z" />
    
</svg>