<svg xmlns="http://www.w3.org/2000/svg" viewBox="143.0 0.0 11.0 62.0">
<svg:path xmlns:svg="http://www.w3.org/2000/svg" id="path31-7-9-7-4-8-3-9" style="fill:#ffffff;fill-rule:evenodd;stroke-width:0" d="m 143.52915,6.0583334 a 5,5 0 0 1 5,-5 5,5 0 0 1 5,5 5,5 0 0 1 -5,4.9999996 5,5 0 0 1 -5,-4.9999996 z" />
    <svg:path xmlns:svg="http://www.w3.org/2000/svg" id="path31-7-9-5-4-9-9-6-5" style="fill:#ffffff;fill-rule:evenodd;stroke-width:0" d="m 143.52915,21.058334 a 5,5 0 0 1 5,-5 5,5 0 0 1 5,5 5,5 0 0 1 -5,5 5,5 0 0 1 -5,-5 z" />
    
</svg>