<svg xmlns="http://www.w3.org/2000/svg" viewBox="121.0 0.0 11.0 62.0">
<svg:path xmlns:svg="http://www.w3.org/2000/svg" id="path31-7-9-7-4-8" style="fill:#ffffff;fill-rule:evenodd;stroke-width:0" d="m 121.52916,41.058334 a 5,5 0 0 1 5,-5 5,5 0 0 1 5,5 5,5 0 0 1 -5,5 5,5 0 0 1 -5,-5 z" />
    <svg:path xmlns:svg="http://www.w3.org/2000/svg" id="path31-7-9-5-4-9-9" style="fill:#ffffff;fill-rule:evenodd;stroke-width:0" d="m 121.52916,56.058334 a 5,5 0 0 1 5,-5 5,5 0 0 1 5,5 5,5 0 0 1 -5,5 5,5 0 0 1 -5,-5 z" />
    
</svg>