<svg xmlns="http://www.w3.org/2000/svg" viewBox="154.0 0.0 11.0 62.0">
<svg:path xmlns:svg="http://www.w3.org/2000/svg" id="path31-7-9-7-4-6" style="fill:#ffffff;fill-rule:evenodd;stroke-width:0" d="m 154.52915,41.058334 a 5,5 0 0 1 5,-5 5,5 0 0 1 5,5 5,5 0 0 1 -5,5 5,5 0 0 1 -5,-5 z" />
    <svg:path xmlns:svg="http://www.w3.org/2000/svg" id="path31-7-9-5-4-9-0" style="fill:#ffffff;fill-rule:evenodd;stroke-width:0" d="m 154.52915,56.058334 a 5,5 0 0 1 5,-5 5,5 0 0 1 5,5 5,5 0 0 1 -5,5 5,5 0 0 1 -5,-5 z" />
    <svg:path xmlns:svg="http://www.w3.org/2000/svg" id="rect1038-1-6-0" style="fill:#ffffff;stroke-width:0" d="m 154.52915,41.058334 h 10 v 15 h -10 z" />
    
</svg>