<svg xmlns="http://www.w3.org/2000/svg" viewBox="165.0 0.0 11.0 62.0">
<svg:path xmlns:svg="http://www.w3.org/2000/svg" id="path31-7-3-7" style="fill:#ffffff;fill-rule:evenodd;stroke-width:0" d="m 165.52915,56.058334 a 5,5 0 0 1 5,-5 5,5 0 0 1 5,5 5,5 0 0 1 -5,5 5,5 0 0 1 -5,-5 z" />
    <svg:path xmlns:svg="http://www.w3.org/2000/svg" id="path31-7-9-7" style="fill:#ffffff;fill-rule:evenodd;stroke-width:0" d="m 165.52915,33.558334 a 5,5 0 0 1 5,-5 5,5 0 0 1 5,5 5,5 0 0 1 -5,5 5,5 0 0 1 -5,-5 z" />
    <svg:path xmlns:svg="http://www.w3.org/2000/svg" id="path31-7-9-5-4" style="fill:#ffffff;fill-rule:evenodd;stroke-width:0" d="m 165.52915,43.558334 a 5,5 0 0 1 5,-5 5,5 0 0 1 5,5 5,5 0 0 1 -5,5 5,5 0 0 1 -5,-5 z" />
    <svg:path xmlns:svg="http://www.w3.org/2000/svg" id="rect1038-1" style="fill:#ffffff;stroke-width:0" d="m 165.52915,33.558334 h 10 v 10 h -10 z" />
    
</svg>