<svg xmlns="http://www.w3.org/2000/svg" viewBox="198.0 0.0 11.0 62.0">
<svg:path xmlns:svg="http://www.w3.org/2000/svg" id="path31-7-9-7-4-8-3" style="fill:#ffffff;fill-rule:evenodd;stroke-width:0" d="m 198.52915,23.558334 a 5,5 0 0 1 5,-5 5,5 0 0 1 5,5 5,5 0 0 1 -5,5 5,5 0 0 1 -5,-5 z" />
    <svg:path xmlns:svg="http://www.w3.org/2000/svg" id="path31-7-9-5-4-9-9-6" style="fill:#ffffff;fill-rule:evenodd;stroke-width:0" d="m 198.52915,38.558334 a 5,5 0 0 1 5,-5 5,5 0 0 1 5,5 5,5 0 0 1 -5,5 5,5 0 0 1 -5,-5 z" />
    
</svg>