<svg xmlns="http://www.w3.org/2000/svg" viewBox="220.0 0.0 11.0 62.0">
<svg:path xmlns:svg="http://www.w3.org/2000/svg" id="path31-7-5-9-1-7-4-1" style="fill:#ffffff;fill-rule:evenodd;stroke-width:0" d="m 220.52915,56.058334 a 5,5 0 0 0 5,5 5,5 0 0 0 5,-5 5,5 0 0 0 -5,-5 5,5 0 0 0 -5,5 z" />
    <svg:path xmlns:svg="http://www.w3.org/2000/svg" id="path31-7-9-9" style="fill:#ffffff;fill-rule:evenodd;stroke-width:0" d="m 220.52915,6.0583363 a 5,5 0 0 1 5,-5 5,5 0 0 1 5,5 5,5 0 0 1 -5,4.9999997 5,5 0 0 1 -5,-4.9999997 z" />
    <svg:path xmlns:svg="http://www.w3.org/2000/svg" id="path31-7-9-5-48" style="fill:#ffffff;fill-rule:evenodd;stroke-width:0" d="m 220.52915,16.058336 a 5,5 0 0 1 5,-5 5,5 0 0 1 5,5 5,5 0 0 1 -5,5 5,5 0 0 1 -5,-5 z" />
    <svg:path xmlns:svg="http://www.w3.org/2000/svg" id="rect1038-8" style="fill:#ffffff;stroke-width:0" d="m 220.52915,6.0583363 h 10 v 9.9999997 h -10 z" />
    
</svg>