<svg xmlns="http://www.w3.org/2000/svg" viewBox="231.0 0.0 11.0 62.0">
<svg:path xmlns:svg="http://www.w3.org/2000/svg" id="path31-7-5-9-7-1-9-1-7" style="fill:#ffffff;fill-rule:evenodd;stroke-width:0" d="m 231.52915,31.058334 a 5,5 0 0 1 5,-5 5,5 0 0 1 5,5 5,5 0 0 1 -5,5 5,5 0 0 1 -5,-5 z" />
    <svg:path xmlns:svg="http://www.w3.org/2000/svg" id="path31-7-5-9-1-7-4" style="fill:#ffffff;fill-rule:evenodd;stroke-width:0" d="m 231.52915,56.058331 a 5,5 0 0 0 5,5 5,5 0 0 0 5,-5 5,5 0 0 0 -5,-5 5,5 0 0 0 -5,5 z" />
    <svg:path xmlns:svg="http://www.w3.org/2000/svg" id="path31-7-9-7-6-1-5-4" style="fill:#ffffff;fill-rule:evenodd;stroke-width:0" d="m 231.52915,43.558331 a 5,5 0 0 0 5,5 5,5 0 0 0 5,-5 5,5 0 0 0 -5,-5 5,5 0 0 0 -5,5 z" />
    <svg:path xmlns:svg="http://www.w3.org/2000/svg" id="path31-7-9-5-4-6-2-1-2" style="fill:#ffffff;fill-rule:evenodd;stroke-width:0" d="m 231.52915,6.0583334 a 5,5 0 0 0 5,4.9999996 5,5 0 0 0 5,-4.9999996 5,5 0 0 0 -5,-5 5,5 0 0 0 -5,5 z" />
    <svg:path xmlns:svg="http://www.w3.org/2000/svg" id="rect1038-1-9-7-1-2" style="fill:#ffffff;stroke-width:0" d="m 231.52915,31.058334 h 10 V 6.0583344 h -10 z" />
    
</svg>