<svg xmlns="http://www.w3.org/2000/svg" viewBox="253.0 0.0 11.0 62.0">
<svg:path xmlns:svg="http://www.w3.org/2000/svg" id="path31-7-5-9-1-7-7-0" style="fill:#ffffff;fill-rule:evenodd;stroke-width:0" d="m 253.52918,56.058334 a 5,5 0 0 0 5,5 5,5 0 0 0 5,-5 5,5 0 0 0 -5,-5 5,5 0 0 0 -5,5 z" />
    <svg:path xmlns:svg="http://www.w3.org/2000/svg" id="path31-7-9-7-6-1-5-6-1" style="fill:#ffffff;fill-rule:evenodd;stroke-width:0" d="m 253.52918,6.0583334 a 5,5 0 0 0 5,4.9999996 5,5 0 0 0 5,-4.9999996 5,5 0 0 0 -5,-5 5,5 0 0 0 -5,5 z" />
    <svg:path xmlns:svg="http://www.w3.org/2000/svg" id="path31-7-9-7-6-1-5-6-1-8" style="fill:#ffffff;fill-rule:evenodd;stroke-width:0" d="m 253.52918,31.058334 a 5,5 0 0 0 5,5 5,5 0 0 0 5,-5 5,5 0 0 0 -5,-5 5,5 0 0 0 -5,5 z" />
    
</svg>