<svg xmlns="http://www.w3.org/2000/svg" viewBox="264.0 0.0 11.0 62.0">
<svg:path xmlns:svg="http://www.w3.org/2000/svg" id="path31-7-9-7-4-67-5" style="fill:#ffffff;fill-rule:evenodd;stroke-width:0" d="m 264.52918,6.0583334 a 5,5 0 0 1 5,-5 5,5 0 0 1 5,5 5,5 0 0 1 -5,4.9999996 5,5 0 0 1 -5,-4.9999996 z" />
    <svg:path xmlns:svg="http://www.w3.org/2000/svg" id="path31-7-9-5-4-9-6-6" style="fill:#ffffff;fill-rule:evenodd;stroke-width:0" d="m 264.52918,23.558334 a 5,5 0 0 1 5,-5 5,5 0 0 1 5,5 5,5 0 0 1 -5,5 5,5 0 0 1 -5,-5 z" />
    <svg:path xmlns:svg="http://www.w3.org/2000/svg" id="rect1038-1-6-2-1" style="fill:#ffffff;stroke-width:0" d="m 264.52918,6.0583334 h 10 V 23.558333 h -10 z" />
    <svg:path xmlns:svg="http://www.w3.org/2000/svg" id="path31-7-9-7-4-67-5-4" style="fill:#ffffff;fill-rule:evenodd;stroke-width:0" d="m 264.52918,38.558334 a 5,5 0 0 1 5,-5 5,5 0 0 1 5,5 5,5 0 0 1 -5,5 5,5 0 0 1 -5,-5 z" />
    <svg:path xmlns:svg="http://www.w3.org/2000/svg" id="path31-7-9-5-4-9-6-6-1" style="fill:#ffffff;fill-rule:evenodd;stroke-width:0" d="m 264.52918,56.058334 a 5,5 0 0 1 5,-5 5,5 0 0 1 5,5 5,5 0 0 1 -5,5 5,5 0 0 1 -5,-5 z" />
    <svg:path xmlns:svg="http://www.w3.org/2000/svg" id="rect1038-1-6-2-1-5" style="fill:#ffffff;stroke-width:0" d="m 264.52918,38.558334 h 10 v 17.5 h -10 z" />
    
</svg>